During a commemoration for japanese soldiers fighting in the US Army during World War II Mr. Miyagi meets the widow of his commanding officer. He gets to know her granddaugther Julie, an angry teenager. She is full of pain about the death of her parents during an accident and has lots of problems with her grandmother and her fellow pupils. So Mr. Miyagi decides to teach her Karate to bring her back on the right way.


Format : AVI
Format/Info : Audio Video Interleave
File size : 525 MiB
Duration : 1h 42mn
Overall bit rate : 713 Kbps
Writing application : MEncoder SVN-r29352(20090610-gcc4.3.3)
Writing library : MPlayer

Video
Format : avc1
Codec ID : avc1
Duration : 1h 42mn
Bit rate : 573 Kbps
Width : 480 pixels
Height : 360 pixels
Display aspect ratio : 4:3
Frame rate : 25.000 fps
Bits/(Pixel*Frame) : 0.133
Stream size : 422 MiB (80%)

Audio
ID : 1
Format : MPEG Audio
Format version : Version 1
Format profile : Layer 3
Mode : Joint stereo
Format_Settings_ModeExtension : MS Stereo
Codec ID : 55
Codec ID/Hint : MP3
Duration : 1h 42mn
Bit rate mode : Constant
Bit rate : 128 Kbps
Channel(s) : 2 channels
Sampling rate : 44.1 KHz
Stream size : 94.3 MiB (18%)
Alignment : Aligned on interleaves
Interleave, duration : 26 ms (0.65 video frame)
Interleave, preload duration : 522 ms
Writing library : LAME3.98